<svg xmlns="http://www.w3.org/2000/svg" viewBox="0 0 1000 740" width="100%" height="auto" style="background:#0b0f19; font-family:'Plus Jakarta Sans', sans-serif;">

<defs>
    <filter id="glow-cyan" x="-20%" y="-20%" width="140%" height="140%">
        <feGaussianBlur stdDeviation="6" result="blur" />
        <feMerge>
            <feMergeNode in="blur"/>
            <feMergeNode in="SourceGraphic"/>
        </feMerge>
    </filter>
    <filter id="glow-purple" x="-20%" y="-20%" width="140%" height="140%">
        <feGaussianBlur stdDeviation="8" result="blur" />
        <feMerge>
            <feMergeNode in="blur"/>
            <feMergeNode in="SourceGraphic"/>
        </feMerge>
    </filter>
    <linearGradient id="header-grad" x1="0%" y1="0%" x2="100%" y2="0%">
        <stop offset="0%" stop-color="#10b981" />
        <stop offset="50%" stop-color="#8b5cf6" />
        <stop offset="100%" stop-color="#3b82f6" />
    </linearGradient>
</defs>

<rect width="100%" height="100%" fill="#0b0f19" />
<line x1="500" y1="70" x2="500" y2="720" stroke="#1e293b" stroke-dasharray="4,4" stroke-width="1" />
<line x1="50" y1="410" x2="950" y2="410" stroke="#1e293b" stroke-dasharray="4,4" stroke-width="1" />
<ellipse cx="210" cy="190" rx="160" ry="120" fill="#10b981" fill-opacity="0.06" stroke="#10b981" stroke-opacity="0.25" stroke-dasharray="6,4" stroke-width="1.5" />
<text x="90" y="85" fill="#10b981" font-size="12" font-weight="700" letter-spacing="1">KOMUNITAS 1: VIRALITY &amp; JOY</text>
<ellipse cx="790" cy="190" rx="160" ry="120" fill="#3b82f6" fill-opacity="0.06" stroke="#3b82f6" stroke-opacity="0.25" stroke-dasharray="6,4" stroke-width="1.5" />
<text x="740" y="85" fill="#3b82f6" font-size="12" font-weight="700" letter-spacing="1">KOMUNITAS 2: TRUST &amp; RETENTION</text>
<ellipse cx="270" cy="540" rx="130" ry="90" fill="#f59e0b" fill-opacity="0.06" stroke="#f59e0b" stroke-opacity="0.25" stroke-dasharray="6,4" stroke-width="1.5" />
<text x="170" y="470" fill="#f59e0b" font-size="12" font-weight="700" letter-spacing="1">KOMUNITAS 3: DISCOVERY</text>
<ellipse cx="730" cy="540" rx="130" ry="90" fill="#ef4444" fill-opacity="0.06" stroke="#ef4444" stroke-opacity="0.25" stroke-dasharray="6,4" stroke-width="1.5" />
<text x="690" y="470" fill="#ef4444" font-size="12" font-weight="700" letter-spacing="1">KOMUNITAS 4: FRICTION</text>
<line x1="220" y1="200" x2="130" y2="140" stroke="#475569" stroke-width="3.1" stroke-opacity="0.45" />
<line x1="220" y1="200" x2="120" y2="250" stroke="#475569" stroke-width="2.8" stroke-opacity="0.45" />
<line x1="220" y1="200" x2="240" y2="110" stroke="#475569" stroke-width="2.9" stroke-opacity="0.45" />
<line x1="220" y1="200" x2="280" y2="160" stroke="#475569" stroke-width="2.7" stroke-opacity="0.45" />
<line x1="130" y1="140" x2="240" y2="110" stroke="#475569" stroke-width="2.2" stroke-opacity="0.45" />
<line x1="120" y1="250" x2="280" y2="160" stroke="#475569" stroke-width="2.1" stroke-opacity="0.45" />
<line x1="780" y1="200" x2="870" y2="140" stroke="#475569" stroke-width="2.8" stroke-opacity="0.45" />
<line x1="780" y1="200" x2="750" y2="110" stroke="#475569" stroke-width="3.1" stroke-opacity="0.45" />
<line x1="780" y1="200" x2="860" y2="250" stroke="#475569" stroke-width="2.9" stroke-opacity="0.45" />
<line x1="780" y1="200" x2="720" y2="160" stroke="#475569" stroke-width="2.7" stroke-opacity="0.45" />
<line x1="870" y1="140" x2="750" y2="110" stroke="#475569" stroke-width="2.2" stroke-opacity="0.45" />
<line x1="860" y1="250" x2="720" y2="160" stroke="#475569" stroke-width="2.4" stroke-opacity="0.45" />
<line x1="300" y1="500" x2="200" y2="520" stroke="#475569" stroke-width="2.7" stroke-opacity="0.45" />
<line x1="300" y1="500" x2="280" y2="590" stroke="#475569" stroke-width="2.5" stroke-opacity="0.45" />
<line x1="200" y1="520" x2="280" y2="590" stroke="#475569" stroke-width="2.0" stroke-opacity="0.45" />
<line x1="700" y1="500" x2="800" y2="520" stroke="#475569" stroke-width="2.8" stroke-opacity="0.45" />
<line x1="700" y1="500" x2="680" y2="590" stroke="#475569" stroke-width="2.5" stroke-opacity="0.45" />
<line x1="700" y1="500" x2="760" y2="590" stroke="#475569" stroke-width="2.6" stroke-opacity="0.45" />
<line x1="800" y1="520" x2="760" y2="590" stroke="#475569" stroke-width="2.1" stroke-opacity="0.45" />
<line x1="220" y1="200" x2="780" y2="200" stroke="#94a3b8" stroke-width="1.5" stroke-opacity="0.75" />
<line x1="220" y1="200" x2="300" y2="500" stroke="#94a3b8" stroke-width="1.7" stroke-opacity="0.75" />
<line x1="780" y1="200" x2="700" y2="500" stroke="#94a3b8" stroke-width="1.5" stroke-opacity="0.75" />
<line x1="300" y1="500" x2="700" y2="500" stroke="#94a3b8" stroke-width="1.3" stroke-opacity="0.75" />
<line x1="500" y1="320" x2="410" y2="240" stroke="#8b5cf6" stroke-width="2.4" stroke-opacity="0.75" stroke-dasharray="3,3" />
<line x1="500" y1="320" x2="590" y2="240" stroke="#8b5cf6" stroke-width="2.4" stroke-opacity="0.75" stroke-dasharray="3,3" />
<line x1="410" y1="240" x2="590" y2="240" stroke="#8b5cf6" stroke-width="2.1" stroke-opacity="0.75" stroke-dasharray="3,3" />
<line x1="500" y1="320" x2="500" y2="400" stroke="#8b5cf6" stroke-width="2.2" stroke-opacity="0.75" stroke-dasharray="3,3" />
<line x1="500" y1="320" x2="220" y2="200" stroke="#a855f7" stroke-width="2.0" stroke-opacity="0.75" stroke-dasharray="3,3" />
<line x1="500" y1="320" x2="780" y2="200" stroke="#a855f7" stroke-width="2.0" stroke-opacity="0.75" stroke-dasharray="3,3" />
<line x1="500" y1="320" x2="300" y2="500" stroke="#a855f7" stroke-width="1.8" stroke-opacity="0.75" stroke-dasharray="3,3" />
<line x1="500" y1="320" x2="700" y2="500" stroke="#a855f7" stroke-width="1.8" stroke-opacity="0.75" stroke-dasharray="3,3" />
<line x1="500" y1="690" x2="500" y2="400" stroke="#06b6d4" stroke-width="2.1" stroke-opacity="0.45" stroke-dasharray="3,3" />
<line x1="560" y1="680" x2="500" y2="400" stroke="#06b6d4" stroke-width="2.4" stroke-opacity="0.45" stroke-dasharray="3,3" />
<line x1="380" y1="660" x2="440" y2="680" stroke="#0284c7" stroke-width="1.4" stroke-opacity="0.45" />
<line x1="440" y1="680" x2="500" y2="690" stroke="#0284c7" stroke-width="1.8" stroke-opacity="0.45" />
<line x1="500" y1="690" x2="560" y2="680" stroke="#0284c7" stroke-width="2.0" stroke-opacity="0.45" />
<line x1="560" y1="680" x2="620" y2="660" stroke="#0284c7" stroke-width="1.5" stroke-opacity="0.45" />
<circle cx="220" cy="200" r="30" fill="none" stroke="#10b981" stroke-width="1.5" stroke-opacity="0.5" />
<circle cx="220" cy="200" r="26" fill="#10b981" fill-opacity="0.85" stroke="#ffffff" stroke-width="1.8" />
<text x="220" y="240" text-anchor="middle" fill="#f8fafc" font-size="13" font-weight="700">C1: Virality &amp; Joy Hub</text>
<circle cx="130" cy="140" r="22" fill="none" stroke="#34d399" stroke-width="1.5" stroke-opacity="0.5" />
<circle cx="130" cy="140" r="18" fill="#34d399" fill-opacity="0.85" stroke="#ffffff" stroke-width="1.8" />
<text x="130" y="172" text-anchor="middle" fill="#f8fafc" font-size="11" font-weight="500">Reels (w=0.42)</text>
<circle cx="120" cy="250" r="20" fill="none" stroke="#34d399" stroke-width="1.5" stroke-opacity="0.5" />
<circle cx="120" cy="250" r="16" fill="#34d399" fill-opacity="0.85" stroke="#ffffff" stroke-width="1.8" />
<text x="120" y="280" text-anchor="middle" fill="#f8fafc" font-size="11" font-weight="500">Story (w=0.28)</text>
<circle cx="240" cy="110" r="19" fill="none" stroke="#6ee7b7" stroke-width="1.5" stroke-opacity="0.5" />
<circle cx="240" cy="110" r="15" fill="#6ee7b7" fill-opacity="0.85" stroke="#ffffff" stroke-width="1.8" />
<text x="240" y="139" text-anchor="middle" fill="#f8fafc" font-size="9" font-weight="500">Emosi Joy (24.5%)</text>
<circle cx="280" cy="160" r="18" fill="none" stroke="#6ee7b7" stroke-width="1.5" stroke-opacity="0.5" />
<circle cx="280" cy="160" r="14" fill="#6ee7b7" fill-opacity="0.85" stroke="#ffffff" stroke-width="1.8" />
<text x="280" y="188" text-anchor="middle" fill="#f8fafc" font-size="9" font-weight="500">Emosi Love (7.6%)</text>
<circle cx="780" cy="200" r="30" fill="none" stroke="#3b82f6" stroke-width="1.5" stroke-opacity="0.5" />
<circle cx="780" cy="200" r="26" fill="#3b82f6" fill-opacity="0.85" stroke="#ffffff" stroke-width="1.8" />
<text x="780" y="240" text-anchor="middle" fill="#f8fafc" font-size="13" font-weight="700">C2: Trust &amp; Retention Hub</text>
<circle cx="870" cy="140" r="20" fill="none" stroke="#60a5fa" stroke-width="1.5" stroke-opacity="0.5" />
<circle cx="870" cy="140" r="16" fill="#60a5fa" fill-opacity="0.85" stroke="#ffffff" stroke-width="1.8" />
<text x="870" y="170" text-anchor="middle" fill="#f8fafc" font-size="11" font-weight="500">Likes (w=0.14)</text>
<circle cx="750" cy="110" r="19" fill="none" stroke="#93c5fd" stroke-width="1.5" stroke-opacity="0.5" />
<circle cx="750" cy="110" r="15" fill="#93c5fd" fill-opacity="0.85" stroke="#ffffff" stroke-width="1.8" />
<text x="750" y="139" text-anchor="middle" fill="#f8fafc" font-size="9" font-weight="500">Emosi Trust (16.1%)</text>
<circle cx="860" cy="250" r="20" fill="none" stroke="#93c5fd" stroke-width="1.5" stroke-opacity="0.5" />
<circle cx="860" cy="250" r="16" fill="#93c5fd" fill-opacity="0.85" stroke="#ffffff" stroke-width="1.8" />
<text x="860" y="280" text-anchor="middle" fill="#f8fafc" font-size="11" font-weight="500">Anticipation (18.2%)</text>
<circle cx="720" cy="160" r="18" fill="none" stroke="#bfdbfe" stroke-width="1.5" stroke-opacity="0.5" />
<circle cx="720" cy="160" r="14" fill="#bfdbfe" fill-opacity="0.85" stroke="#ffffff" stroke-width="1.8" />
<text x="720" y="188" text-anchor="middle" fill="#f8fafc" font-size="9" font-weight="500">Optimism (12.4%)</text>
<circle cx="300" cy="500" r="28" fill="none" stroke="#f59e0b" stroke-width="1.5" stroke-opacity="0.5" />
<circle cx="300" cy="500" r="24" fill="#f59e0b" fill-opacity="0.85" stroke="#ffffff" stroke-width="1.8" />
<text x="300" y="538" text-anchor="middle" fill="#f8fafc" font-size="13" font-weight="700">C3: Discovery &amp; Share Hub</text>
<circle cx="200" cy="520" r="19" fill="none" stroke="#fbbf24" stroke-width="1.5" stroke-opacity="0.5" />
<circle cx="200" cy="520" r="15" fill="#fbbf24" fill-opacity="0.85" stroke="#ffffff" stroke-width="1.8" />
<text x="200" y="549" text-anchor="middle" fill="#f8fafc" font-size="9" font-weight="500">Share (w=0.06)</text>
<circle cx="280" cy="590" r="18" fill="none" stroke="#fde68a" stroke-width="1.5" stroke-opacity="0.5" />
<circle cx="280" cy="590" r="14" fill="#fde68a" fill-opacity="0.85" stroke="#ffffff" stroke-width="1.8" />
<text x="280" y="618" text-anchor="middle" fill="#f8fafc" font-size="9" font-weight="500">Surprise (9.8%)</text>
<circle cx="700" cy="500" r="28" fill="none" stroke="#ef4444" stroke-width="1.5" stroke-opacity="0.5" />
<circle cx="700" cy="500" r="24" fill="#ef4444" fill-opacity="0.85" stroke="#ffffff" stroke-width="1.8" />
<text x="700" y="538" text-anchor="middle" fill="#f8fafc" font-size="13" font-weight="700">C4: Feedback &amp; Friction Hub</text>
<circle cx="800" cy="520" r="20" fill="none" stroke="#f87171" stroke-width="1.5" stroke-opacity="0.5" />
<circle cx="800" cy="520" r="16" fill="#f87171" fill-opacity="0.85" stroke="#ffffff" stroke-width="1.8" />
<text x="800" y="550" text-anchor="middle" fill="#f8fafc" font-size="11" font-weight="500">Komen (w=0.08)</text>
<circle cx="680" cy="590" r="17" fill="none" stroke="#fca5a5" stroke-width="1.5" stroke-opacity="0.5" />
<circle cx="680" cy="590" r="13" fill="#fca5a5" fill-opacity="0.85" stroke="#ffffff" stroke-width="1.8" />
<text x="680" y="617" text-anchor="middle" fill="#f8fafc" font-size="9" font-weight="500">Sadness (5.1%)</text>
<circle cx="760" cy="590" r="17" fill="none" stroke="#fca5a5" stroke-width="1.5" stroke-opacity="0.5" />
<circle cx="760" cy="590" r="13" fill="#fca5a5" fill-opacity="0.85" stroke="#ffffff" stroke-width="1.8" />
<text x="760" y="617" text-anchor="middle" fill="#f8fafc" font-size="9" font-weight="500">Anger (3.8%)</text>
<circle cx="500" cy="320" r="34" fill="none" stroke="#8b5cf6" stroke-width="1.5" stroke-opacity="0.5" />
<circle cx="500" cy="320" r="30" fill="#8b5cf6" fill-opacity="0.85" stroke="#ffffff" stroke-width="1.8" filter="url(#glow-purple)" />
<text x="500" y="364" text-anchor="middle" fill="#f8fafc" font-size="13" font-weight="700">Louvain Core: dQ &lt;= 0 (Zero Epochs)</text>
<circle cx="410" cy="240" r="20" fill="none" stroke="#a78bfa" stroke-width="1.5" stroke-opacity="0.5" />
<circle cx="410" cy="240" r="16" fill="#a78bfa" fill-opacity="0.85" stroke="#ffffff" stroke-width="1.8" />
<text x="410" y="270" text-anchor="middle" fill="#f8fafc" font-size="11" font-weight="500">Phase 1: Local Moving (max dQ)</text>
<circle cx="590" cy="240" r="20" fill="none" stroke="#a78bfa" stroke-width="1.5" stroke-opacity="0.5" />
<circle cx="590" cy="240" r="16" fill="#a78bfa" fill-opacity="0.85" stroke="#ffffff" stroke-width="1.8" />
<text x="590" y="270" text-anchor="middle" fill="#f8fafc" font-size="11" font-weight="500">Phase 2: Meta-Graph Contraction</text>
<circle cx="500" cy="400" r="21" fill="none" stroke="#c4b5fd" stroke-width="1.5" stroke-opacity="0.5" />
<circle cx="500" cy="400" r="17" fill="#c4b5fd" fill-opacity="0.85" stroke="#ffffff" stroke-width="1.8" />
<text x="500" y="431" text-anchor="middle" fill="#f8fafc" font-size="11" font-weight="500">Seed Anchor (ARI=0.9738)</text>
<circle cx="380" cy="660" r="18" fill="none" stroke="#06b6d4" stroke-width="1.5" stroke-opacity="0.5" />
<circle cx="380" cy="660" r="14" fill="#06b6d4" fill-opacity="0.85" stroke="#ffffff" stroke-width="1.8" />
<text x="380" y="688" text-anchor="middle" fill="#f8fafc" font-size="9" font-weight="500">gamma=0.5 (Macro k=2)</text>
<circle cx="440" cy="680" r="18" fill="none" stroke="#06b6d4" stroke-width="1.5" stroke-opacity="0.5" />
<circle cx="440" cy="680" r="14" fill="#06b6d4" fill-opacity="0.85" stroke="#ffffff" stroke-width="1.8" />
<text x="440" y="708" text-anchor="middle" fill="#f8fafc" font-size="9" font-weight="500">gamma=0.8 (Meso k=4.6)</text>
<circle cx="500" cy="690" r="22" fill="none" stroke="#06b6d4" stroke-width="1.5" stroke-opacity="0.5" />
<circle cx="500" cy="690" r="18" fill="#06b6d4" fill-opacity="0.85" stroke="#ffffff" stroke-width="1.8" />
<text x="500" y="722" text-anchor="middle" fill="#f8fafc" font-size="11" font-weight="500">gamma=1.0 (Newman Q=0.0526)</text>
<circle cx="560" cy="680" r="22" fill="none" stroke="#06b6d4" stroke-width="1.5" stroke-opacity="0.5" />
<circle cx="560" cy="680" r="18" fill="#06b6d4" fill-opacity="0.85" stroke="#ffffff" stroke-width="1.8" filter="url(#glow-cyan)" />
<text x="560" y="712" text-anchor="middle" fill="#f8fafc" font-size="11" font-weight="500">gamma=1.2 (Optimal ARI=0.9738)</text>
<circle cx="620" cy="660" r="18" fill="none" stroke="#06b6d4" stroke-width="1.5" stroke-opacity="0.5" />
<circle cx="620" cy="660" r="14" fill="#06b6d4" fill-opacity="0.85" stroke="#ffffff" stroke-width="1.8" />
<text x="620" y="688" text-anchor="middle" fill="#f8fafc" font-size="9" font-weight="500">gamma=1.5 (Micro k=15.2)</text>

<g transform="translate(40, 20)">
    <text x="0" y="24" fill="url(#header-grad)" font-size="20" font-weight="800" letter-spacing="0.5">TOPOLOGI NODEXL: KONVERGENSI LOUVAIN TANPA EPOCH</text>
    <text x="0" y="44" fill="#94a3b8" font-size="12">Multi-Scale Resolution Optimization (gamma = 0.5 .. 1.5) &amp; Deterministic Seed Stability (ARI = 0.9738, Stop dQ &lt;= 0)</text>
</g>
<g transform="translate(680, 20)">
    <rect x="0" y="6" width="135" height="26" rx="6" fill="#8b5cf6" fill-opacity="0.2" stroke="#8b5cf6" stroke-width="1" />
    <text x="67" y="23" text-anchor="middle" fill="#c4b5fd" font-size="11" font-weight="700">DELTA Q &lt;= 0 (KONVERGEN)</text>
    <rect x="145" y="6" width="135" height="26" rx="6" fill="#10b981" fill-opacity="0.2" stroke="#10b981" stroke-width="1" />
    <text x="212" y="23" text-anchor="middle" fill="#6ee7b7" font-size="11" font-weight="700">ARI STABILITAS: 0.9738</text>
</g>


<g transform="translate(40, 715)">
    <rect x="0" y="0" width="920" height="20" rx="4" fill="#1e293b" fill-opacity="0.6" />
    <circle cx="20" cy="10" r="5" fill="#8b5cf6" />
    <text x="32" y="14" fill="#cbd5e1" font-size="10">Convergence Core (Tanpa Epoch)</text>
    <circle cx="210" cy="10" r="5" fill="#06b6d4" />
    <text x="222" y="14" fill="#cbd5e1" font-size="10">Resolution Arc (gamma = 0.5 .. 1.5)</text>
    <circle cx="410" cy="10" r="5" fill="#10b981" />
    <text x="422" y="14" fill="#cbd5e1" font-size="10">C1: Virality/Joy</text>
    <circle cx="530" cy="10" r="5" fill="#3b82f6" />
    <text x="542" y="14" fill="#cbd5e1" font-size="10">C2: Trust/Retention</text>
    <circle cx="670" cy="10" r="5" fill="#f59e0b" />
    <text x="682" y="14" fill="#cbd5e1" font-size="10">C3: Discovery</text>
    <circle cx="770" cy="10" r="5" fill="#ef4444" />
    <text x="782" y="14" fill="#cbd5e1" font-size="10">C4: Friction</text>
</g>

</svg>