<svg xmlns="http://www.w3.org/2000/svg" viewBox="0 0 880 720" width="100%" height="100%" style="background:#090d16; font-family:-apple-system,BlinkMacSystemFont,Segoe UI,Roboto,sans-serif;">
<text x="440.0" y="36" text-anchor="middle" fill="#f8fafc" font-size="20" font-weight="bold">NodeXL Graph: Top 20 Aktor Betweenness Centrality</text>
<text x="440.0" y="58" text-anchor="middle" fill="#94a3b8" font-size="12">Social Network Analysis (SNA) — Indonesian Social Topology &amp; Interaction Bridges</text>
<line x1="440.0" y1="100.0" x2="514.2" y2="111.7" stroke="#38bdf8" stroke-opacity="0.45" stroke-width="1.8" />
<line x1="440.0" y1="100.0" x2="581.1" y2="145.8" stroke="#38bdf8" stroke-opacity="0.45" stroke-width="1.8" />
<line x1="440.0" y1="100.0" x2="634.2" y2="198.9" stroke="#38bdf8" stroke-opacity="0.45" stroke-width="1.8" />
<line x1="440.0" y1="100.0" x2="668.3" y2="265.8" stroke="#38bdf8" stroke-opacity="0.45" stroke-width="1.8" />
<line x1="440.0" y1="100.0" x2="680.0" y2="340.0" stroke="#38bdf8" stroke-opacity="0.45" stroke-width="1.8" />
<line x1="440.0" y1="100.0" x2="668.3" y2="414.2" stroke="#38bdf8" stroke-opacity="0.45" stroke-width="1.8" />
<line x1="440.0" y1="100.0" x2="634.2" y2="481.1" stroke="#38bdf8" stroke-opacity="0.45" stroke-width="1.8" />
<line x1="440.0" y1="100.0" x2="581.1" y2="534.2" stroke="#38bdf8" stroke-opacity="0.45" stroke-width="1.8" />
<line x1="440.0" y1="100.0" x2="514.2" y2="568.3" stroke="#38bdf8" stroke-opacity="0.45" stroke-width="1.8" />
<line x1="440.0" y1="100.0" x2="440.0" y2="580.0" stroke="#38bdf8" stroke-opacity="0.45" stroke-width="1.8" />
<line x1="440.0" y1="100.0" x2="365.8" y2="568.3" stroke="#38bdf8" stroke-opacity="0.45" stroke-width="1.8" />
<line x1="440.0" y1="100.0" x2="298.9" y2="534.2" stroke="#38bdf8" stroke-opacity="0.45" stroke-width="1.8" />
<line x1="440.0" y1="100.0" x2="245.8" y2="481.1" stroke="#38bdf8" stroke-opacity="0.45" stroke-width="1.8" />
<line x1="440.0" y1="100.0" x2="211.7" y2="414.2" stroke="#38bdf8" stroke-opacity="0.45" stroke-width="1.8" />
<line x1="440.0" y1="100.0" x2="200.0" y2="340.0" stroke="#38bdf8" stroke-opacity="0.45" stroke-width="1.8" />
<line x1="440.0" y1="100.0" x2="211.7" y2="265.8" stroke="#38bdf8" stroke-opacity="0.45" stroke-width="1.8" />
<line x1="440.0" y1="100.0" x2="245.8" y2="198.9" stroke="#38bdf8" stroke-opacity="0.45" stroke-width="1.8" />
<line x1="440.0" y1="100.0" x2="298.9" y2="145.8" stroke="#38bdf8" stroke-opacity="0.45" stroke-width="1.8" />
<line x1="440.0" y1="100.0" x2="365.8" y2="111.7" stroke="#38bdf8" stroke-opacity="0.45" stroke-width="1.8" />
<line x1="514.2" y1="111.7" x2="581.1" y2="145.8" stroke="#38bdf8" stroke-opacity="0.45" stroke-width="1.8" />
<line x1="514.2" y1="111.7" x2="634.2" y2="198.9" stroke="#38bdf8" stroke-opacity="0.45" stroke-width="1.8" />
<line x1="514.2" y1="111.7" x2="668.3" y2="265.8" stroke="#38bdf8" stroke-opacity="0.45" stroke-width="1.8" />
<line x1="514.2" y1="111.7" x2="680.0" y2="340.0" stroke="#38bdf8" stroke-opacity="0.45" stroke-width="1.8" />
<line x1="514.2" y1="111.7" x2="668.3" y2="414.2" stroke="#38bdf8" stroke-opacity="0.45" stroke-width="1.8" />
<line x1="514.2" y1="111.7" x2="634.2" y2="481.1" stroke="#38bdf8" stroke-opacity="0.45" stroke-width="1.8" />
<line x1="514.2" y1="111.7" x2="581.1" y2="534.2" stroke="#38bdf8" stroke-opacity="0.45" stroke-width="1.8" />
<line x1="514.2" y1="111.7" x2="514.2" y2="568.3" stroke="#38bdf8" stroke-opacity="0.45" stroke-width="1.8" />
<line x1="514.2" y1="111.7" x2="440.0" y2="580.0" stroke="#38bdf8" stroke-opacity="0.45" stroke-width="1.8" />
<line x1="514.2" y1="111.7" x2="365.8" y2="568.3" stroke="#38bdf8" stroke-opacity="0.45" stroke-width="1.8" />
<line x1="514.2" y1="111.7" x2="298.9" y2="534.2" stroke="#38bdf8" stroke-opacity="0.45" stroke-width="1.8" />
<line x1="514.2" y1="111.7" x2="245.8" y2="481.1" stroke="#38bdf8" stroke-opacity="0.45" stroke-width="1.8" />
<line x1="514.2" y1="111.7" x2="211.7" y2="414.2" stroke="#38bdf8" stroke-opacity="0.45" stroke-width="1.8" />
<line x1="514.2" y1="111.7" x2="200.0" y2="340.0" stroke="#38bdf8" stroke-opacity="0.45" stroke-width="1.8" />
<line x1="514.2" y1="111.7" x2="211.7" y2="265.8" stroke="#38bdf8" stroke-opacity="0.45" stroke-width="1.8" />
<line x1="514.2" y1="111.7" x2="245.8" y2="198.9" stroke="#38bdf8" stroke-opacity="0.45" stroke-width="1.8" />
<line x1="514.2" y1="111.7" x2="298.9" y2="145.8" stroke="#38bdf8" stroke-opacity="0.45" stroke-width="1.8" />
<line x1="514.2" y1="111.7" x2="365.8" y2="111.7" stroke="#38bdf8" stroke-opacity="0.45" stroke-width="1.8" />
<line x1="581.1" y1="145.8" x2="634.2" y2="198.9" stroke="#334155" stroke-opacity="0.15" stroke-width="0.8" />
<line x1="581.1" y1="145.8" x2="668.3" y2="265.8" stroke="#334155" stroke-opacity="0.15" stroke-width="0.8" />
<line x1="581.1" y1="145.8" x2="680.0" y2="340.0" stroke="#334155" stroke-opacity="0.15" stroke-width="0.8" />
<line x1="581.1" y1="145.8" x2="668.3" y2="414.2" stroke="#334155" stroke-opacity="0.15" stroke-width="0.8" />
<line x1="581.1" y1="145.8" x2="634.2" y2="481.1" stroke="#334155" stroke-opacity="0.15" stroke-width="0.8" />
<line x1="581.1" y1="145.8" x2="581.1" y2="534.2" stroke="#334155" stroke-opacity="0.15" stroke-width="0.8" />
<line x1="581.1" y1="145.8" x2="514.2" y2="568.3" stroke="#334155" stroke-opacity="0.15" stroke-width="0.8" />
<line x1="581.1" y1="145.8" x2="440.0" y2="580.0" stroke="#334155" stroke-opacity="0.15" stroke-width="0.8" />
<line x1="581.1" y1="145.8" x2="365.8" y2="568.3" stroke="#334155" stroke-opacity="0.15" stroke-width="0.8" />
<line x1="581.1" y1="145.8" x2="298.9" y2="534.2" stroke="#334155" stroke-opacity="0.15" stroke-width="0.8" />
<line x1="581.1" y1="145.8" x2="245.8" y2="481.1" stroke="#334155" stroke-opacity="0.15" stroke-width="0.8" />
<line x1="581.1" y1="145.8" x2="211.7" y2="414.2" stroke="#334155" stroke-opacity="0.15" stroke-width="0.8" />
<line x1="581.1" y1="145.8" x2="200.0" y2="340.0" stroke="#334155" stroke-opacity="0.15" stroke-width="0.8" />
<line x1="581.1" y1="145.8" x2="211.7" y2="265.8" stroke="#334155" stroke-opacity="0.15" stroke-width="0.8" />
<line x1="581.1" y1="145.8" x2="245.8" y2="198.9" stroke="#334155" stroke-opacity="0.15" stroke-width="0.8" />
<line x1="581.1" y1="145.8" x2="298.9" y2="145.8" stroke="#334155" stroke-opacity="0.15" stroke-width="0.8" />
<line x1="581.1" y1="145.8" x2="365.8" y2="111.7" stroke="#334155" stroke-opacity="0.15" stroke-width="0.8" />
<line x1="634.2" y1="198.9" x2="668.3" y2="265.8" stroke="#334155" stroke-opacity="0.15" stroke-width="0.8" />
<line x1="634.2" y1="198.9" x2="680.0" y2="340.0" stroke="#334155" stroke-opacity="0.15" stroke-width="0.8" />
<line x1="634.2" y1="198.9" x2="668.3" y2="414.2" stroke="#334155" stroke-opacity="0.15" stroke-width="0.8" />
<line x1="634.2" y1="198.9" x2="634.2" y2="481.1" stroke="#334155" stroke-opacity="0.15" stroke-width="0.8" />
<line x1="634.2" y1="198.9" x2="581.1" y2="534.2" stroke="#334155" stroke-opacity="0.15" stroke-width="0.8" />
<line x1="634.2" y1="198.9" x2="514.2" y2="568.3" stroke="#334155" stroke-opacity="0.15" stroke-width="0.8" />
<line x1="634.2" y1="198.9" x2="440.0" y2="580.0" stroke="#334155" stroke-opacity="0.15" stroke-width="0.8" />
<line x1="634.2" y1="198.9" x2="365.8" y2="568.3" stroke="#334155" stroke-opacity="0.15" stroke-width="0.8" />
<line x1="634.2" y1="198.9" x2="298.9" y2="534.2" stroke="#334155" stroke-opacity="0.15" stroke-width="0.8" />
<line x1="634.2" y1="198.9" x2="245.8" y2="481.1" stroke="#334155" stroke-opacity="0.15" stroke-width="0.8" />
<line x1="634.2" y1="198.9" x2="211.7" y2="414.2" stroke="#334155" stroke-opacity="0.15" stroke-width="0.8" />
<line x1="634.2" y1="198.9" x2="200.0" y2="340.0" stroke="#334155" stroke-opacity="0.15" stroke-width="0.8" />
<line x1="634.2" y1="198.9" x2="211.7" y2="265.8" stroke="#334155" stroke-opacity="0.15" stroke-width="0.8" />
<line x1="634.2" y1="198.9" x2="245.8" y2="198.9" stroke="#334155" stroke-opacity="0.15" stroke-width="0.8" />
<line x1="634.2" y1="198.9" x2="298.9" y2="145.8" stroke="#334155" stroke-opacity="0.15" stroke-width="0.8" />
<line x1="634.2" y1="198.9" x2="365.8" y2="111.7" stroke="#334155" stroke-opacity="0.15" stroke-width="0.8" />
<line x1="668.3" y1="265.8" x2="680.0" y2="340.0" stroke="#334155" stroke-opacity="0.15" stroke-width="0.8" />
<line x1="668.3" y1="265.8" x2="668.3" y2="414.2" stroke="#334155" stroke-opacity="0.15" stroke-width="0.8" />
<line x1="668.3" y1="265.8" x2="634.2" y2="481.1" stroke="#334155" stroke-opacity="0.15" stroke-width="0.8" />
<line x1="668.3" y1="265.8" x2="581.1" y2="534.2" stroke="#334155" stroke-opacity="0.15" stroke-width="0.8" />
<line x1="668.3" y1="265.8" x2="514.2" y2="568.3" stroke="#334155" stroke-opacity="0.15" stroke-width="0.8" />
<line x1="668.3" y1="265.8" x2="440.0" y2="580.0" stroke="#334155" stroke-opacity="0.15" stroke-width="0.8" />
<line x1="668.3" y1="265.8" x2="365.8" y2="568.3" stroke="#334155" stroke-opacity="0.15" stroke-width="0.8" />
<line x1="668.3" y1="265.8" x2="298.9" y2="534.2" stroke="#334155" stroke-opacity="0.15" stroke-width="0.8" />
<line x1="668.3" y1="265.8" x2="245.8" y2="481.1" stroke="#334155" stroke-opacity="0.15" stroke-width="0.8" />
<line x1="668.3" y1="265.8" x2="211.7" y2="414.2" stroke="#334155" stroke-opacity="0.15" stroke-width="0.8" />
<line x1="668.3" y1="265.8" x2="200.0" y2="340.0" stroke="#334155" stroke-opacity="0.15" stroke-width="0.8" />
<line x1="668.3" y1="265.8" x2="211.7" y2="265.8" stroke="#334155" stroke-opacity="0.15" stroke-width="0.8" />
<line x1="668.3" y1="265.8" x2="245.8" y2="198.9" stroke="#334155" stroke-opacity="0.15" stroke-width="0.8" />
<line x1="668.3" y1="265.8" x2="298.9" y2="145.8" stroke="#334155" stroke-opacity="0.15" stroke-width="0.8" />
<line x1="668.3" y1="265.8" x2="365.8" y2="111.7" stroke="#334155" stroke-opacity="0.15" stroke-width="0.8" />
<line x1="680.0" y1="340.0" x2="668.3" y2="414.2" stroke="#334155" stroke-opacity="0.15" stroke-width="0.8" />
<line x1="680.0" y1="340.0" x2="634.2" y2="481.1" stroke="#334155" stroke-opacity="0.15" stroke-width="0.8" />
<line x1="680.0" y1="340.0" x2="581.1" y2="534.2" stroke="#334155" stroke-opacity="0.15" stroke-width="0.8" />
<line x1="680.0" y1="340.0" x2="514.2" y2="568.3" stroke="#334155" stroke-opacity="0.15" stroke-width="0.8" />
<line x1="680.0" y1="340.0" x2="440.0" y2="580.0" stroke="#334155" stroke-opacity="0.15" stroke-width="0.8" />
<line x1="680.0" y1="340.0" x2="365.8" y2="568.3" stroke="#334155" stroke-opacity="0.15" stroke-width="0.8" />
<line x1="680.0" y1="340.0" x2="298.9" y2="534.2" stroke="#334155" stroke-opacity="0.15" stroke-width="0.8" />
<line x1="680.0" y1="340.0" x2="245.8" y2="481.1" stroke="#334155" stroke-opacity="0.15" stroke-width="0.8" />
<line x1="680.0" y1="340.0" x2="211.7" y2="414.2" stroke="#334155" stroke-opacity="0.15" stroke-width="0.8" />
<line x1="680.0" y1="340.0" x2="200.0" y2="340.0" stroke="#334155" stroke-opacity="0.15" stroke-width="0.8" />
<line x1="680.0" y1="340.0" x2="211.7" y2="265.8" stroke="#334155" stroke-opacity="0.15" stroke-width="0.8" />
<line x1="680.0" y1="340.0" x2="245.8" y2="198.9" stroke="#334155" stroke-opacity="0.15" stroke-width="0.8" />
<line x1="680.0" y1="340.0" x2="298.9" y2="145.8" stroke="#334155" stroke-opacity="0.15" stroke-width="0.8" />
<line x1="680.0" y1="340.0" x2="365.8" y2="111.7" stroke="#334155" stroke-opacity="0.15" stroke-width="0.8" />
<line x1="668.3" y1="414.2" x2="634.2" y2="481.1" stroke="#334155" stroke-opacity="0.15" stroke-width="0.8" />
<line x1="668.3" y1="414.2" x2="581.1" y2="534.2" stroke="#334155" stroke-opacity="0.15" stroke-width="0.8" />
<line x1="668.3" y1="414.2" x2="514.2" y2="568.3" stroke="#334155" stroke-opacity="0.15" stroke-width="0.8" />
<line x1="668.3" y1="414.2" x2="440.0" y2="580.0" stroke="#334155" stroke-opacity="0.15" stroke-width="0.8" />
<line x1="668.3" y1="414.2" x2="365.8" y2="568.3" stroke="#334155" stroke-opacity="0.15" stroke-width="0.8" />
<line x1="668.3" y1="414.2" x2="298.9" y2="534.2" stroke="#334155" stroke-opacity="0.15" stroke-width="0.8" />
<line x1="668.3" y1="414.2" x2="245.8" y2="481.1" stroke="#334155" stroke-opacity="0.15" stroke-width="0.8" />
<line x1="668.3" y1="414.2" x2="211.7" y2="414.2" stroke="#334155" stroke-opacity="0.15" stroke-width="0.8" />
<line x1="668.3" y1="414.2" x2="200.0" y2="340.0" stroke="#334155" stroke-opacity="0.15" stroke-width="0.8" />
<line x1="668.3" y1="414.2" x2="211.7" y2="265.8" stroke="#334155" stroke-opacity="0.15" stroke-width="0.8" />
<line x1="668.3" y1="414.2" x2="245.8" y2="198.9" stroke="#334155" stroke-opacity="0.15" stroke-width="0.8" />
<line x1="668.3" y1="414.2" x2="298.9" y2="145.8" stroke="#334155" stroke-opacity="0.15" stroke-width="0.8" />
<line x1="668.3" y1="414.2" x2="365.8" y2="111.7" stroke="#334155" stroke-opacity="0.15" stroke-width="0.8" />
<line x1="634.2" y1="481.1" x2="581.1" y2="534.2" stroke="#334155" stroke-opacity="0.15" stroke-width="0.8" />
<line x1="634.2" y1="481.1" x2="514.2" y2="568.3" stroke="#334155" stroke-opacity="0.15" stroke-width="0.8" />
<line x1="634.2" y1="481.1" x2="440.0" y2="580.0" stroke="#334155" stroke-opacity="0.15" stroke-width="0.8" />
<line x1="634.2" y1="481.1" x2="365.8" y2="568.3" stroke="#334155" stroke-opacity="0.15" stroke-width="0.8" />
<line x1="634.2" y1="481.1" x2="298.9" y2="534.2" stroke="#334155" stroke-opacity="0.15" stroke-width="0.8" />
<line x1="634.2" y1="481.1" x2="245.8" y2="481.1" stroke="#334155" stroke-opacity="0.15" stroke-width="0.8" />
<line x1="634.2" y1="481.1" x2="211.7" y2="414.2" stroke="#334155" stroke-opacity="0.15" stroke-width="0.8" />
<line x1="634.2" y1="481.1" x2="200.0" y2="340.0" stroke="#334155" stroke-opacity="0.15" stroke-width="0.8" />
<line x1="634.2" y1="481.1" x2="211.7" y2="265.8" stroke="#334155" stroke-opacity="0.15" stroke-width="0.8" />
<line x1="634.2" y1="481.1" x2="245.8" y2="198.9" stroke="#334155" stroke-opacity="0.15" stroke-width="0.8" />
<line x1="634.2" y1="481.1" x2="298.9" y2="145.8" stroke="#334155" stroke-opacity="0.15" stroke-width="0.8" />
<line x1="634.2" y1="481.1" x2="365.8" y2="111.7" stroke="#334155" stroke-opacity="0.15" stroke-width="0.8" />
<line x1="581.1" y1="534.2" x2="514.2" y2="568.3" stroke="#334155" stroke-opacity="0.15" stroke-width="0.8" />
<line x1="581.1" y1="534.2" x2="440.0" y2="580.0" stroke="#334155" stroke-opacity="0.15" stroke-width="0.8" />
<line x1="581.1" y1="534.2" x2="365.8" y2="568.3" stroke="#334155" stroke-opacity="0.15" stroke-width="0.8" />
<line x1="581.1" y1="534.2" x2="298.9" y2="534.2" stroke="#334155" stroke-opacity="0.15" stroke-width="0.8" />
<line x1="581.1" y1="534.2" x2="245.8" y2="481.1" stroke="#334155" stroke-opacity="0.15" stroke-width="0.8" />
<line x1="581.1" y1="534.2" x2="211.7" y2="414.2" stroke="#334155" stroke-opacity="0.15" stroke-width="0.8" />
<line x1="581.1" y1="534.2" x2="200.0" y2="340.0" stroke="#334155" stroke-opacity="0.15" stroke-width="0.8" />
<line x1="581.1" y1="534.2" x2="211.7" y2="265.8" stroke="#334155" stroke-opacity="0.15" stroke-width="0.8" />
<line x1="581.1" y1="534.2" x2="245.8" y2="198.9" stroke="#334155" stroke-opacity="0.15" stroke-width="0.8" />
<line x1="581.1" y1="534.2" x2="298.9" y2="145.8" stroke="#334155" stroke-opacity="0.15" stroke-width="0.8" />
<line x1="581.1" y1="534.2" x2="365.8" y2="111.7" stroke="#334155" stroke-opacity="0.15" stroke-width="0.8" />
<line x1="514.2" y1="568.3" x2="440.0" y2="580.0" stroke="#334155" stroke-opacity="0.15" stroke-width="0.8" />
<line x1="514.2" y1="568.3" x2="365.8" y2="568.3" stroke="#334155" stroke-opacity="0.15" stroke-width="0.8" />
<line x1="514.2" y1="568.3" x2="298.9" y2="534.2" stroke="#334155" stroke-opacity="0.15" stroke-width="0.8" />
<line x1="514.2" y1="568.3" x2="245.8" y2="481.1" stroke="#334155" stroke-opacity="0.15" stroke-width="0.8" />
<line x1="514.2" y1="568.3" x2="211.7" y2="414.2" stroke="#334155" stroke-opacity="0.15" stroke-width="0.8" />
<line x1="514.2" y1="568.3" x2="200.0" y2="340.0" stroke="#334155" stroke-opacity="0.15" stroke-width="0.8" />
<line x1="514.2" y1="568.3" x2="211.7" y2="265.8" stroke="#334155" stroke-opacity="0.15" stroke-width="0.8" />
<line x1="514.2" y1="568.3" x2="245.8" y2="198.9" stroke="#334155" stroke-opacity="0.15" stroke-width="0.8" />
<line x1="514.2" y1="568.3" x2="298.9" y2="145.8" stroke="#334155" stroke-opacity="0.15" stroke-width="0.8" />
<line x1="514.2" y1="568.3" x2="365.8" y2="111.7" stroke="#334155" stroke-opacity="0.15" stroke-width="0.8" />
<line x1="440.0" y1="580.0" x2="365.8" y2="568.3" stroke="#334155" stroke-opacity="0.15" stroke-width="0.8" />
<line x1="440.0" y1="580.0" x2="298.9" y2="534.2" stroke="#334155" stroke-opacity="0.15" stroke-width="0.8" />
<line x1="440.0" y1="580.0" x2="245.8" y2="481.1" stroke="#334155" stroke-opacity="0.15" stroke-width="0.8" />
<line x1="440.0" y1="580.0" x2="211.7" y2="414.2" stroke="#334155" stroke-opacity="0.15" stroke-width="0.8" />
<line x1="440.0" y1="580.0" x2="200.0" y2="340.0" stroke="#334155" stroke-opacity="0.15" stroke-width="0.8" />
<line x1="440.0" y1="580.0" x2="211.7" y2="265.8" stroke="#334155" stroke-opacity="0.15" stroke-width="0.8" />
<line x1="440.0" y1="580.0" x2="245.8" y2="198.9" stroke="#334155" stroke-opacity="0.15" stroke-width="0.8" />
<line x1="440.0" y1="580.0" x2="298.9" y2="145.8" stroke="#334155" stroke-opacity="0.15" stroke-width="0.8" />
<line x1="440.0" y1="580.0" x2="365.8" y2="111.7" stroke="#334155" stroke-opacity="0.15" stroke-width="0.8" />
<line x1="365.8" y1="568.3" x2="298.9" y2="534.2" stroke="#334155" stroke-opacity="0.15" stroke-width="0.8" />
<line x1="365.8" y1="568.3" x2="245.8" y2="481.1" stroke="#334155" stroke-opacity="0.15" stroke-width="0.8" />
<line x1="365.8" y1="568.3" x2="211.7" y2="414.2" stroke="#334155" stroke-opacity="0.15" stroke-width="0.8" />
<line x1="365.8" y1="568.3" x2="200.0" y2="340.0" stroke="#334155" stroke-opacity="0.15" stroke-width="0.8" />
<line x1="365.8" y1="568.3" x2="211.7" y2="265.8" stroke="#334155" stroke-opacity="0.15" stroke-width="0.8" />
<line x1="365.8" y1="568.3" x2="245.8" y2="198.9" stroke="#334155" stroke-opacity="0.15" stroke-width="0.8" />
<line x1="365.8" y1="568.3" x2="298.9" y2="145.8" stroke="#334155" stroke-opacity="0.15" stroke-width="0.8" />
<line x1="365.8" y1="568.3" x2="365.8" y2="111.7" stroke="#334155" stroke-opacity="0.15" stroke-width="0.8" />
<line x1="298.9" y1="534.2" x2="245.8" y2="481.1" stroke="#334155" stroke-opacity="0.15" stroke-width="0.8" />
<line x1="298.9" y1="534.2" x2="211.7" y2="414.2" stroke="#334155" stroke-opacity="0.15" stroke-width="0.8" />
<line x1="298.9" y1="534.2" x2="200.0" y2="340.0" stroke="#334155" stroke-opacity="0.15" stroke-width="0.8" />
<line x1="298.9" y1="534.2" x2="211.7" y2="265.8" stroke="#334155" stroke-opacity="0.15" stroke-width="0.8" />
<line x1="298.9" y1="534.2" x2="245.8" y2="198.9" stroke="#334155" stroke-opacity="0.15" stroke-width="0.8" />
<line x1="298.9" y1="534.2" x2="298.9" y2="145.8" stroke="#334155" stroke-opacity="0.15" stroke-width="0.8" />
<line x1="298.9" y1="534.2" x2="365.8" y2="111.7" stroke="#334155" stroke-opacity="0.15" stroke-width="0.8" />
<line x1="245.8" y1="481.1" x2="211.7" y2="414.2" stroke="#334155" stroke-opacity="0.15" stroke-width="0.8" />
<line x1="245.8" y1="481.1" x2="200.0" y2="340.0" stroke="#334155" stroke-opacity="0.15" stroke-width="0.8" />
<line x1="245.8" y1="481.1" x2="211.7" y2="265.8" stroke="#334155" stroke-opacity="0.15" stroke-width="0.8" />
<line x1="245.8" y1="481.1" x2="245.8" y2="198.9" stroke="#334155" stroke-opacity="0.15" stroke-width="0.8" />
<line x1="245.8" y1="481.1" x2="298.9" y2="145.8" stroke="#334155" stroke-opacity="0.15" stroke-width="0.8" />
<line x1="245.8" y1="481.1" x2="365.8" y2="111.7" stroke="#334155" stroke-opacity="0.15" stroke-width="0.8" />
<line x1="211.7" y1="414.2" x2="200.0" y2="340.0" stroke="#334155" stroke-opacity="0.15" stroke-width="0.8" />
<line x1="211.7" y1="414.2" x2="211.7" y2="265.8" stroke="#334155" stroke-opacity="0.15" stroke-width="0.8" />
<line x1="211.7" y1="414.2" x2="245.8" y2="198.9" stroke="#334155" stroke-opacity="0.15" stroke-width="0.8" />
<line x1="211.7" y1="414.2" x2="298.9" y2="145.8" stroke="#334155" stroke-opacity="0.15" stroke-width="0.8" />
<line x1="211.7" y1="414.2" x2="365.8" y2="111.7" stroke="#334155" stroke-opacity="0.15" stroke-width="0.8" />
<line x1="200.0" y1="340.0" x2="211.7" y2="265.8" stroke="#334155" stroke-opacity="0.15" stroke-width="0.8" />
<line x1="200.0" y1="340.0" x2="245.8" y2="198.9" stroke="#334155" stroke-opacity="0.15" stroke-width="0.8" />
<line x1="200.0" y1="340.0" x2="298.9" y2="145.8" stroke="#334155" stroke-opacity="0.15" stroke-width="0.8" />
<line x1="200.0" y1="340.0" x2="365.8" y2="111.7" stroke="#334155" stroke-opacity="0.15" stroke-width="0.8" />
<line x1="211.7" y1="265.8" x2="245.8" y2="198.9" stroke="#334155" stroke-opacity="0.15" stroke-width="0.8" />
<line x1="211.7" y1="265.8" x2="298.9" y2="145.8" stroke="#334155" stroke-opacity="0.15" stroke-width="0.8" />
<line x1="211.7" y1="265.8" x2="365.8" y2="111.7" stroke="#334155" stroke-opacity="0.15" stroke-width="0.8" />
<line x1="245.8" y1="198.9" x2="298.9" y2="145.8" stroke="#334155" stroke-opacity="0.15" stroke-width="0.8" />
<line x1="245.8" y1="198.9" x2="365.8" y2="111.7" stroke="#334155" stroke-opacity="0.15" stroke-width="0.8" />
<line x1="298.9" y1="145.8" x2="365.8" y2="111.7" stroke="#334155" stroke-opacity="0.15" stroke-width="0.8" />
<circle cx="440.0" cy="100.0" r="14" fill="#f59e0b" stroke="#0f172a" stroke-width="2.5" />
<text x="440.0" y="72.0" text-anchor="middle" dominant-baseline="middle" fill="#e2e8f0" font-size="11" font-weight="600">#1 smtown</text>
<circle cx="514.2" cy="111.7" r="14" fill="#f59e0b" stroke="#0f172a" stroke-width="2.5" />
<text x="522.8" y="85.1" text-anchor="start" dominant-baseline="middle" fill="#e2e8f0" font-size="11" font-weight="600">#2 dalang.pelo</text>
<circle cx="581.1" cy="145.8" r="10" fill="#0ea5e9" stroke="#0f172a" stroke-width="2.5" />
<text x="595.2" y="126.4" text-anchor="start" dominant-baseline="middle" fill="#e2e8f0" font-size="11" font-weight="600">#3 iqbaal.e</text>
<circle cx="634.2" cy="198.9" r="10" fill="#0ea5e9" stroke="#0f172a" stroke-width="2.5" />
<text x="653.6" y="184.8" text-anchor="start" dominant-baseline="middle" fill="#e2e8f0" font-size="11" font-weight="600">#4 nianaguerrero</text>
<circle cx="668.3" cy="265.8" r="10" fill="#0ea5e9" stroke="#0f172a" stroke-width="2.5" />
<text x="691.1" y="258.4" text-anchor="start" dominant-baseline="middle" fill="#e2e8f0" font-size="11" font-weight="600">#5 attahalilintar</text>
<circle cx="680.0" cy="340.0" r="10" fill="#0ea5e9" stroke="#0f172a" stroke-width="2.5" />
<text x="704.0" y="340.0" text-anchor="start" dominant-baseline="middle" fill="#e2e8f0" font-size="11" font-weight="600">#6 manurios</text>
<circle cx="668.3" cy="414.2" r="10" fill="#0ea5e9" stroke="#0f172a" stroke-width="2.5" />
<text x="691.1" y="421.6" text-anchor="start" dominant-baseline="middle" fill="#e2e8f0" font-size="11" font-weight="600">#7 natashawilona12</text>
<circle cx="634.2" cy="481.1" r="10" fill="#0ea5e9" stroke="#0f172a" stroke-width="2.5" />
<text x="653.6" y="495.2" text-anchor="start" dominant-baseline="middle" fill="#e2e8f0" font-size="11" font-weight="600">#8 rachelvennya</text>
<circle cx="581.1" cy="534.2" r="7" fill="#818cf8" stroke="#0f172a" stroke-width="2.5" />
<text x="593.4" y="551.2" text-anchor="start" dominant-baseline="middle" fill="#e2e8f0" font-size="11" font-weight="600">#9 jeromepolin</text>
<circle cx="514.2" cy="568.3" r="7" fill="#818cf8" stroke="#0f172a" stroke-width="2.5" />
<text x="520.7" y="588.2" text-anchor="start" dominant-baseline="middle" fill="#e2e8f0" font-size="11" font-weight="600">#10 jharnabhagwani</text>
<circle cx="440.0" cy="580.0" r="7" fill="#818cf8" stroke="#0f172a" stroke-width="2.5" />
<text x="440.0" y="601.0" text-anchor="middle" dominant-baseline="middle" fill="#e2e8f0" font-size="11" font-weight="600">#11 syifahadjureal</text>
<circle cx="365.8" cy="568.3" r="7" fill="#818cf8" stroke="#0f172a" stroke-width="2.5" />
<text x="359.3" y="588.2" text-anchor="end" dominant-baseline="middle" fill="#e2e8f0" font-size="11" font-weight="600">#12 bintangemon</text>
<circle cx="298.9" cy="534.2" r="7" fill="#818cf8" stroke="#0f172a" stroke-width="2.5" />
<text x="286.6" y="551.2" text-anchor="end" dominant-baseline="middle" fill="#e2e8f0" font-size="11" font-weight="600">#13 saaihalilintar</text>
<circle cx="245.8" cy="481.1" r="7" fill="#818cf8" stroke="#0f172a" stroke-width="2.5" />
<text x="228.8" y="493.4" text-anchor="end" dominant-baseline="middle" fill="#e2e8f0" font-size="11" font-weight="600">#14 nashwaaaz</text>
<circle cx="211.7" cy="414.2" r="7" fill="#818cf8" stroke="#0f172a" stroke-width="2.5" />
<text x="191.8" y="420.7" text-anchor="end" dominant-baseline="middle" fill="#e2e8f0" font-size="11" font-weight="600">#15 fiersabesari</text>
<circle cx="200.0" cy="340.0" r="7" fill="#818cf8" stroke="#0f172a" stroke-width="2.5" />
<text x="179.0" y="340.0" text-anchor="end" dominant-baseline="middle" fill="#e2e8f0" font-size="11" font-weight="600">#16 brianimanuel</text>
<circle cx="211.7" cy="265.8" r="7" fill="#818cf8" stroke="#0f172a" stroke-width="2.5" />
<text x="191.8" y="259.3" text-anchor="end" dominant-baseline="middle" fill="#e2e8f0" font-size="11" font-weight="600">#17 bramastavrl</text>
<circle cx="245.8" cy="198.9" r="7" fill="#818cf8" stroke="#0f172a" stroke-width="2.5" />
<text x="228.8" y="186.6" text-anchor="end" dominant-baseline="middle" fill="#e2e8f0" font-size="11" font-weight="600">#18 jessica.syj</text>
<circle cx="298.9" cy="145.8" r="7" fill="#818cf8" stroke="#0f172a" stroke-width="2.5" />
<text x="286.6" y="128.8" text-anchor="end" dominant-baseline="middle" fill="#e2e8f0" font-size="11" font-weight="600">#19 alfysaga</text>
<circle cx="365.8" cy="111.7" r="7" fill="#818cf8" stroke="#0f172a" stroke-width="2.5" />
<text x="359.3" y="91.8" text-anchor="end" dominant-baseline="middle" fill="#e2e8f0" font-size="11" font-weight="600">#20 misellia_</text>
<rect x="290.0" y="290.0" width="300" height="100" rx="10" fill="#0f172a" fill-opacity="0.85" stroke="#1e293b" stroke-width="1.5" />
<text x="440.0" y="315.0" text-anchor="middle" fill="#38bdf8" font-size="13" font-weight="bold">TOPOLOGY METRICS (NodeXL)</text>
<text x="440.0" y="335.0" text-anchor="middle" fill="#cbd5e1" font-size="11">Total Vertices: 20 | Total Edges: 190</text>
<text x="440.0" y="355.0" text-anchor="middle" fill="#94a3b8" font-size="10">Bridge Hubs (#1 &amp; #2 Betweenness: 0.02008)</text>
<text x="440.0" y="372.0" text-anchor="middle" fill="#10b981" font-size="10">Algorithm: Brandes Centrality Index</text>
<circle cx="240" cy="695" r="5" fill="#f59e0b" />
<text x="252" y="699" fill="#cbd5e1" font-size="11">Top Bridge Hubs</text>
<circle cx="430" cy="695" r="5" fill="#0ea5e9" />
<text x="442" y="699" fill="#cbd5e1" font-size="11">Tier-1 Interaction Actors</text>
<circle cx="630" cy="695" r="5" fill="#818cf8" />
<text x="642" y="699" fill="#cbd5e1" font-size="11">Tier-2 Topic Actors</text>
</svg>