<svg xmlns="http://www.w3.org/2000/svg" viewBox="0 0 980 680" width="100%" height="100%" style="background:#0f172a; border-radius:12px; font-family:-apple-system,BlinkMacSystemFont,sans-serif;">
  <!-- Header Background & Title -->
  <rect x="0" y="0" width="980" height="60" fill="#1e293b" opacity="0.9"/>
  <text x="30" y="36" fill="#f8fafc" font-size="16" font-weight="bold">NodeXL Graph: IndoBERT Affective Semantic Topology & Interaction Modalities</text>
  <text x="30" y="52" fill="#94a3b8" font-size="10">9 Discrete Emotions (IndoBERT-base-p1) | 6 Interaction Modalities (WER Simplex) | Brandes Betweenness</text>
  <!-- Edges -->
  <g stroke="#334155" stroke-opacity="0.6" stroke-width="1.2">
    <line x1="528.9" y1="308.4" x2="612.8" y2="128.7" stroke="#475569" stroke-width="1.0" opacity="0.5"/>
    <line x1="528.9" y1="308.4" x2="392.6" y2="521.9" stroke="#475569" stroke-width="1.0" opacity="0.5"/>
    <line x1="528.9" y1="308.4" x2="808.5" y2="447.6" stroke="#475569" stroke-width="1.0" opacity="0.5"/>
    <line x1="528.9" y1="308.4" x2="432.9" y2="108.4" stroke="#475569" stroke-width="1.0" opacity="0.5"/>
    <line x1="528.9" y1="308.4" x2="708.8" y2="164.9" stroke="#475569" stroke-width="1.0" opacity="0.5"/>
    <line x1="528.9" y1="308.4" x2="438.8" y2="297.9" stroke="#f43f5e" stroke-width="1.8" opacity="0.5"/>
    <line x1="528.9" y1="308.4" x2="471.0" y2="319.8" stroke="#f43f5e" stroke-width="1.8" opacity="0.5"/>
    <line x1="528.9" y1="308.4" x2="376.4" y2="399.1" stroke="#f43f5e" stroke-width="1.8" opacity="0.5"/>
    <line x1="528.9" y1="308.4" x2="479.8" y2="407.2" stroke="#f43f5e" stroke-width="1.8" opacity="0.5"/>
    <line x1="528.9" y1="308.4" x2="495.8" y2="232.6" stroke="#f43f5e" stroke-width="1.8" opacity="0.5"/>
    <line x1="528.9" y1="308.4" x2="399.0" y2="413.7" stroke="#38bdf8" stroke-width="1.0" opacity="0.5"/>
    <line x1="528.9" y1="308.4" x2="320.7" y2="366.1" stroke="#38bdf8" stroke-width="1.0" opacity="0.5"/>
    <line x1="528.9" y1="308.4" x2="623.5" y2="317.4" stroke="#38bdf8" stroke-width="1.0" opacity="0.5"/>
    <line x1="320.7" y1="366.1" x2="85.3" y2="321.0" stroke="#475569" stroke-width="1.0" opacity="0.5"/>
    <line x1="320.7" y1="366.1" x2="129.9" y2="493.8" stroke="#475569" stroke-width="1.0" opacity="0.5"/>
    <line x1="320.7" y1="366.1" x2="251.7" y2="520.9" stroke="#475569" stroke-width="1.0" opacity="0.5"/>
    <line x1="320.7" y1="366.1" x2="458.9" y2="540.7" stroke="#475569" stroke-width="1.0" opacity="0.5"/>
    <line x1="320.7" y1="366.1" x2="439.4" y2="170.0" stroke="#475569" stroke-width="1.0" opacity="0.5"/>
    <line x1="320.7" y1="366.1" x2="438.8" y2="297.9" stroke="#f43f5e" stroke-width="1.8" opacity="0.5"/>
    <line x1="320.7" y1="366.1" x2="495.8" y2="232.6" stroke="#f43f5e" stroke-width="1.8" opacity="0.5"/>
    <line x1="461.9" y1="399.4" x2="736.5" y2="428.9" stroke="#475569" stroke-width="1.0" opacity="0.5"/>
    <line x1="461.9" y1="399.4" x2="678.1" y2="586.8" stroke="#475569" stroke-width="1.0" opacity="0.5"/>
    <line x1="461.9" y1="399.4" x2="503.8" y2="610.0" stroke="#475569" stroke-width="1.0" opacity="0.5"/>
    <line x1="461.9" y1="399.4" x2="182.3" y2="281.3" stroke="#475569" stroke-width="1.0" opacity="0.5"/>
    <line x1="461.9" y1="399.4" x2="145.8" y2="316.5" stroke="#475569" stroke-width="1.0" opacity="0.5"/>
    <line x1="461.9" y1="399.4" x2="471.0" y2="319.8" stroke="#f43f5e" stroke-width="1.8" opacity="0.5"/>
    <line x1="461.9" y1="399.4" x2="553.2" y2="351.5" stroke="#f43f5e" stroke-width="1.8" opacity="0.5"/>
    <line x1="461.9" y1="399.4" x2="495.8" y2="232.6" stroke="#f43f5e" stroke-width="1.8" opacity="0.5"/>
    <line x1="461.9" y1="399.4" x2="399.0" y2="413.7" stroke="#38bdf8" stroke-width="1.0" opacity="0.5"/>
    <line x1="399.0" y1="413.7" x2="272.4" y2="193.1" stroke="#475569" stroke-width="1.0" opacity="0.5"/>
    <line x1="399.0" y1="413.7" x2="689.5" y2="321.8" stroke="#475569" stroke-width="1.0" opacity="0.5"/>
    <line x1="399.0" y1="413.7" x2="176.5" y2="475.1" stroke="#475569" stroke-width="1.0" opacity="0.5"/>
    <line x1="399.0" y1="413.7" x2="221.6" y2="545.7" stroke="#475569" stroke-width="1.0" opacity="0.5"/>
    <line x1="399.0" y1="413.7" x2="350.1" y2="603.8" stroke="#475569" stroke-width="1.0" opacity="0.5"/>
    <line x1="399.0" y1="413.7" x2="471.0" y2="319.8" stroke="#f43f5e" stroke-width="1.8" opacity="0.5"/>
    <line x1="399.0" y1="413.7" x2="376.4" y2="399.1" stroke="#f43f5e" stroke-width="1.8" opacity="0.5"/>
    <line x1="569.7" y1="257.5" x2="746.1" y2="114.1" stroke="#475569" stroke-width="1.0" opacity="0.5"/>
    <line x1="569.7" y1="257.5" x2="248.5" y2="364.8" stroke="#475569" stroke-width="1.0" opacity="0.5"/>
    <line x1="569.7" y1="257.5" x2="652.5" y2="456.0" stroke="#475569" stroke-width="1.0" opacity="0.5"/>
    <line x1="569.7" y1="257.5" x2="692.1" y2="81.6" stroke="#475569" stroke-width="1.0" opacity="0.5"/>
    <line x1="569.7" y1="257.5" x2="544.8" y2="70.0" stroke="#475569" stroke-width="1.0" opacity="0.5"/>
    <line x1="569.7" y1="257.5" x2="438.8" y2="297.9" stroke="#f43f5e" stroke-width="1.8" opacity="0.5"/>
    <line x1="569.7" y1="257.5" x2="553.2" y2="351.5" stroke="#f43f5e" stroke-width="1.8" opacity="0.5"/>
    <line x1="569.7" y1="257.5" x2="479.8" y2="407.2" stroke="#f43f5e" stroke-width="1.8" opacity="0.5"/>
    <line x1="569.7" y1="257.5" x2="703.5" y2="369.8" stroke="#38bdf8" stroke-width="1.0" opacity="0.5"/>
    <line x1="623.5" y1="317.4" x2="866.2" y2="433.0" stroke="#475569" stroke-width="1.0" opacity="0.5"/>
    <line x1="623.5" y1="317.4" x2="518.4" y2="95.2" stroke="#475569" stroke-width="1.0" opacity="0.5"/>
    <line x1="623.5" y1="317.4" x2="311.2" y2="247.1" stroke="#475569" stroke-width="1.0" opacity="0.5"/>
    <line x1="623.5" y1="317.4" x2="780.6" y2="487.1" stroke="#475569" stroke-width="1.0" opacity="0.5"/>
    <line x1="623.5" y1="317.4" x2="910.0" y2="319.0" stroke="#475569" stroke-width="1.0" opacity="0.5"/>
    <line x1="623.5" y1="317.4" x2="438.8" y2="297.9" stroke="#f43f5e" stroke-width="1.8" opacity="0.5"/>
    <line x1="623.5" y1="317.4" x2="471.0" y2="319.8" stroke="#f43f5e" stroke-width="1.8" opacity="0.5"/>
    <line x1="623.5" y1="317.4" x2="376.4" y2="399.1" stroke="#f43f5e" stroke-width="1.8" opacity="0.5"/>
    <line x1="562.3" y1="227.4" x2="265.1" y2="312.0" stroke="#475569" stroke-width="1.0" opacity="0.5"/>
    <line x1="562.3" y1="227.4" x2="807.8" y2="306.2" stroke="#475569" stroke-width="1.0" opacity="0.5"/>
    <line x1="562.3" y1="227.4" x2="865.9" y2="258.0" stroke="#475569" stroke-width="1.0" opacity="0.5"/>
    <line x1="562.3" y1="227.4" x2="805.3" y2="219.5" stroke="#475569" stroke-width="1.0" opacity="0.5"/>
    <line x1="562.3" y1="227.4" x2="250.4" y2="109.9" stroke="#475569" stroke-width="1.0" opacity="0.5"/>
    <line x1="562.3" y1="227.4" x2="553.2" y2="351.5" stroke="#f43f5e" stroke-width="1.8" opacity="0.5"/>
    <line x1="562.3" y1="227.4" x2="369.2" y2="267.6" stroke="#38bdf8" stroke-width="1.0" opacity="0.5"/>
    <line x1="369.2" y1="267.6" x2="70.0" y2="348.7" stroke="#475569" stroke-width="1.0" opacity="0.5"/>
    <line x1="369.2" y1="267.6" x2="202.3" y2="194.4" stroke="#475569" stroke-width="1.0" opacity="0.5"/>
    <line x1="369.2" y1="267.6" x2="732.1" y2="193.3" stroke="#475569" stroke-width="1.0" opacity="0.5"/>
    <line x1="369.2" y1="267.6" x2="332.4" y2="452.1" stroke="#475569" stroke-width="1.0" opacity="0.5"/>
    <line x1="369.2" y1="267.6" x2="272.1" y2="91.2" stroke="#475569" stroke-width="1.0" opacity="0.5"/>
    <line x1="369.2" y1="267.6" x2="553.2" y2="351.5" stroke="#f43f5e" stroke-width="1.8" opacity="0.5"/>
    <line x1="369.2" y1="267.6" x2="479.8" y2="407.2" stroke="#f43f5e" stroke-width="1.8" opacity="0.5"/>
    <line x1="703.5" y1="369.8" x2="449.7" y2="216.2" stroke="#475569" stroke-width="1.0" opacity="0.5"/>
    <line x1="703.5" y1="369.8" x2="819.5" y2="524.4" stroke="#475569" stroke-width="1.0" opacity="0.5"/>
    <line x1="703.5" y1="369.8" x2="668.8" y2="564.4" stroke="#475569" stroke-width="1.0" opacity="0.5"/>
    <line x1="703.5" y1="369.8" x2="829.4" y2="174.4" stroke="#475569" stroke-width="1.0" opacity="0.5"/>
    <line x1="703.5" y1="369.8" x2="907.2" y2="378.1" stroke="#475569" stroke-width="1.0" opacity="0.5"/>
    <line x1="703.5" y1="369.8" x2="479.8" y2="407.2" stroke="#f43f5e" stroke-width="1.8" opacity="0.5"/>
  </g>
  <!-- Nodes -->
  <g>
    <circle cx="528.9" cy="308.4" r="18" fill="#10b981" stroke="#ffffff" stroke-width="1.5" opacity="0.95"/>
    <text x="528.9" y="286.4" fill="#f8fafc" font-size="10" font-weight="600" text-anchor="middle">Joy (24.5%)</text>
    <circle cx="320.7" cy="366.1" r="18" fill="#3b82f6" stroke="#ffffff" stroke-width="1.5" opacity="0.95"/>
    <text x="320.7" y="344.1" fill="#f8fafc" font-size="10" font-weight="600" text-anchor="middle">Anticipation (18.2%)</text>
    <circle cx="461.9" cy="399.4" r="18" fill="#06b6d4" stroke="#ffffff" stroke-width="1.5" opacity="0.95"/>
    <text x="461.9" y="377.4" fill="#f8fafc" font-size="10" font-weight="600" text-anchor="middle">Trust (16.1%)</text>
    <circle cx="399.0" cy="413.7" r="18" fill="#8b5cf6" stroke="#ffffff" stroke-width="1.5" opacity="0.95"/>
    <text x="399.0" y="391.7" fill="#f8fafc" font-size="10" font-weight="600" text-anchor="middle">Optimism (12.4%)</text>
    <circle cx="569.7" cy="257.5" r="18" fill="#f59e0b" stroke="#ffffff" stroke-width="1.5" opacity="0.95"/>
    <text x="569.7" y="235.5" fill="#f8fafc" font-size="10" font-weight="600" text-anchor="middle">Surprise (9.8%)</text>
    <circle cx="623.5" cy="317.4" r="18" fill="#ec4899" stroke="#ffffff" stroke-width="1.5" opacity="0.95"/>
    <text x="623.5" y="295.4" fill="#f8fafc" font-size="10" font-weight="600" text-anchor="middle">Love (7.6%)</text>
    <circle cx="562.3" cy="227.4" r="18" fill="#64748b" stroke="#ffffff" stroke-width="1.5" opacity="0.95"/>
    <text x="562.3" y="205.4" fill="#f8fafc" font-size="10" font-weight="600" text-anchor="middle">Sadness (5.1%)</text>
    <circle cx="369.2" cy="267.6" r="18" fill="#ef4444" stroke="#ffffff" stroke-width="1.5" opacity="0.95"/>
    <text x="369.2" y="245.6" fill="#f8fafc" font-size="10" font-weight="600" text-anchor="middle">Anger (3.8%)</text>
    <circle cx="703.5" cy="369.8" r="18" fill="#991b1b" stroke="#ffffff" stroke-width="1.5" opacity="0.95"/>
    <text x="703.5" y="347.8" fill="#f8fafc" font-size="10" font-weight="600" text-anchor="middle">Fear (2.5%)</text>
    <circle cx="438.8" cy="297.9" r="14" fill="#f43f5e" stroke="#ffffff" stroke-width="1.5" opacity="0.95"/>
    <text x="438.8" y="279.9" fill="#f8fafc" font-size="10" font-weight="600" text-anchor="middle">Modality: Reels (w=0.42)</text>
    <circle cx="471.0" cy="319.8" r="14" fill="#fb923c" stroke="#ffffff" stroke-width="1.5" opacity="0.95"/>
    <text x="471.0" y="301.8" fill="#f8fafc" font-size="10" font-weight="600" text-anchor="middle">Modality: Story (w=0.28)</text>
    <circle cx="376.4" cy="399.1" r="14" fill="#a855f7" stroke="#ffffff" stroke-width="1.5" opacity="0.95"/>
    <text x="376.4" y="381.1" fill="#f8fafc" font-size="10" font-weight="600" text-anchor="middle">Modality: Likes (w=0.14)</text>
    <circle cx="553.2" cy="351.5" r="14" fill="#38bdf8" stroke="#ffffff" stroke-width="1.5" opacity="0.95"/>
    <text x="553.2" y="333.5" fill="#f8fafc" font-size="10" font-weight="600" text-anchor="middle">Modality: Komen (w=0.08)</text>
    <circle cx="479.8" cy="407.2" r="14" fill="#4ade80" stroke="#ffffff" stroke-width="1.5" opacity="0.95"/>
    <text x="479.8" y="389.2" fill="#f8fafc" font-size="10" font-weight="600" text-anchor="middle">Modality: Share (w=0.06)</text>
    <circle cx="495.8" cy="232.6" r="14" fill="#eab308" stroke="#ffffff" stroke-width="1.5" opacity="0.95"/>
    <text x="495.8" y="214.6" fill="#f8fafc" font-size="10" font-weight="600" text-anchor="middle">Modality: Live (w=0.02)</text>
    <circle cx="612.8" cy="128.7" r="7" fill="#94a3b8" stroke="#ffffff" stroke-width="0.8" opacity="0.95"/>
    <circle cx="392.6" cy="521.9" r="7" fill="#94a3b8" stroke="#ffffff" stroke-width="0.8" opacity="0.95"/>
    <circle cx="808.5" cy="447.6" r="7" fill="#94a3b8" stroke="#ffffff" stroke-width="0.8" opacity="0.95"/>
    <circle cx="432.9" cy="108.4" r="7" fill="#94a3b8" stroke="#ffffff" stroke-width="0.8" opacity="0.95"/>
    <circle cx="708.8" cy="164.9" r="7" fill="#94a3b8" stroke="#ffffff" stroke-width="0.8" opacity="0.95"/>
    <circle cx="85.3" cy="321.0" r="7" fill="#94a3b8" stroke="#ffffff" stroke-width="0.8" opacity="0.95"/>
    <circle cx="129.9" cy="493.8" r="7" fill="#94a3b8" stroke="#ffffff" stroke-width="0.8" opacity="0.95"/>
    <circle cx="251.7" cy="520.9" r="7" fill="#94a3b8" stroke="#ffffff" stroke-width="0.8" opacity="0.95"/>
    <circle cx="458.9" cy="540.7" r="7" fill="#94a3b8" stroke="#ffffff" stroke-width="0.8" opacity="0.95"/>
    <circle cx="439.4" cy="170.0" r="7" fill="#94a3b8" stroke="#ffffff" stroke-width="0.8" opacity="0.95"/>
    <circle cx="736.5" cy="428.9" r="7" fill="#94a3b8" stroke="#ffffff" stroke-width="0.8" opacity="0.95"/>
    <circle cx="678.1" cy="586.8" r="7" fill="#94a3b8" stroke="#ffffff" stroke-width="0.8" opacity="0.95"/>
    <circle cx="503.8" cy="610.0" r="7" fill="#94a3b8" stroke="#ffffff" stroke-width="0.8" opacity="0.95"/>
    <circle cx="182.3" cy="281.3" r="7" fill="#94a3b8" stroke="#ffffff" stroke-width="0.8" opacity="0.95"/>
    <circle cx="145.8" cy="316.5" r="7" fill="#94a3b8" stroke="#ffffff" stroke-width="0.8" opacity="0.95"/>
    <circle cx="272.4" cy="193.1" r="7" fill="#94a3b8" stroke="#ffffff" stroke-width="0.8" opacity="0.95"/>
    <circle cx="689.5" cy="321.8" r="7" fill="#94a3b8" stroke="#ffffff" stroke-width="0.8" opacity="0.95"/>
    <circle cx="176.5" cy="475.1" r="7" fill="#94a3b8" stroke="#ffffff" stroke-width="0.8" opacity="0.95"/>
    <circle cx="221.6" cy="545.7" r="7" fill="#94a3b8" stroke="#ffffff" stroke-width="0.8" opacity="0.95"/>
    <circle cx="350.1" cy="603.8" r="7" fill="#94a3b8" stroke="#ffffff" stroke-width="0.8" opacity="0.95"/>
    <circle cx="746.1" cy="114.1" r="7" fill="#94a3b8" stroke="#ffffff" stroke-width="0.8" opacity="0.95"/>
    <circle cx="248.5" cy="364.8" r="7" fill="#94a3b8" stroke="#ffffff" stroke-width="0.8" opacity="0.95"/>
    <circle cx="652.5" cy="456.0" r="7" fill="#94a3b8" stroke="#ffffff" stroke-width="0.8" opacity="0.95"/>
    <circle cx="692.1" cy="81.6" r="7" fill="#94a3b8" stroke="#ffffff" stroke-width="0.8" opacity="0.95"/>
    <circle cx="544.8" cy="70.0" r="7" fill="#94a3b8" stroke="#ffffff" stroke-width="0.8" opacity="0.95"/>
    <circle cx="866.2" cy="433.0" r="7" fill="#94a3b8" stroke="#ffffff" stroke-width="0.8" opacity="0.95"/>
    <circle cx="518.4" cy="95.2" r="7" fill="#94a3b8" stroke="#ffffff" stroke-width="0.8" opacity="0.95"/>
    <circle cx="311.2" cy="247.1" r="7" fill="#94a3b8" stroke="#ffffff" stroke-width="0.8" opacity="0.95"/>
    <circle cx="780.6" cy="487.1" r="7" fill="#94a3b8" stroke="#ffffff" stroke-width="0.8" opacity="0.95"/>
    <circle cx="910.0" cy="319.0" r="7" fill="#94a3b8" stroke="#ffffff" stroke-width="0.8" opacity="0.95"/>
    <circle cx="265.1" cy="312.0" r="7" fill="#94a3b8" stroke="#ffffff" stroke-width="0.8" opacity="0.95"/>
    <circle cx="807.8" cy="306.2" r="7" fill="#94a3b8" stroke="#ffffff" stroke-width="0.8" opacity="0.95"/>
    <circle cx="865.9" cy="258.0" r="7" fill="#94a3b8" stroke="#ffffff" stroke-width="0.8" opacity="0.95"/>
    <circle cx="805.3" cy="219.5" r="7" fill="#94a3b8" stroke="#ffffff" stroke-width="0.8" opacity="0.95"/>
    <circle cx="250.4" cy="109.9" r="7" fill="#94a3b8" stroke="#ffffff" stroke-width="0.8" opacity="0.95"/>
    <circle cx="70.0" cy="348.7" r="7" fill="#94a3b8" stroke="#ffffff" stroke-width="0.8" opacity="0.95"/>
    <circle cx="202.3" cy="194.4" r="7" fill="#94a3b8" stroke="#ffffff" stroke-width="0.8" opacity="0.95"/>
    <circle cx="732.1" cy="193.3" r="7" fill="#94a3b8" stroke="#ffffff" stroke-width="0.8" opacity="0.95"/>
    <circle cx="332.4" cy="452.1" r="7" fill="#94a3b8" stroke="#ffffff" stroke-width="0.8" opacity="0.95"/>
    <circle cx="272.1" cy="91.2" r="7" fill="#94a3b8" stroke="#ffffff" stroke-width="0.8" opacity="0.95"/>
    <circle cx="449.7" cy="216.2" r="7" fill="#94a3b8" stroke="#ffffff" stroke-width="0.8" opacity="0.95"/>
    <circle cx="819.5" cy="524.4" r="7" fill="#94a3b8" stroke="#ffffff" stroke-width="0.8" opacity="0.95"/>
    <circle cx="668.8" cy="564.4" r="7" fill="#94a3b8" stroke="#ffffff" stroke-width="0.8" opacity="0.95"/>
    <circle cx="829.4" cy="174.4" r="7" fill="#94a3b8" stroke="#ffffff" stroke-width="0.8" opacity="0.95"/>
    <circle cx="907.2" cy="378.1" r="7" fill="#94a3b8" stroke="#ffffff" stroke-width="0.8" opacity="0.95"/>
  </g>
  <!-- Legend Box -->
  <rect x="30" y="625" width="920" height="40" rx="8" fill="#1e293b" opacity="0.9" stroke="#334155" stroke-width="1"/>
  <circle cx="50" cy="645" r="6" fill="#10b981"/>
  <text x="62" y="649" fill="#e2e8f0" font-size="10">Joy / Positive Hub</text>
  <circle cx="180" cy="645" r="6" fill="#f59e0b"/>
  <text x="192" y="649" fill="#e2e8f0" font-size="10">Surprise (Viral Hook)</text>
  <circle cx="330" cy="645" r="6" fill="#ef4444"/>
  <text x="342" y="649" fill="#e2e8f0" font-size="10">Anger / Social Critique</text>
  <circle cx="490" cy="645" r="6" fill="#f43f5e"/>
  <text x="502" y="649" fill="#e2e8f0" font-size="10">Reels / Stories Modality</text>
  <circle cx="660" cy="645" r="5" fill="#94a3b8"/>
  <text x="672" y="649" fill="#e2e8f0" font-size="10">Lexical Token Trigger</text>
  <text x="935" y="649" fill="#38bdf8" font-size="10" font-weight="bold" text-anchor="end">Scopus Q1 Compliant (D=0.8805)</text>
</svg>